<?xml version="1.0" ?><!DOCTYPE svg  PUBLIC '-//W3C//DTD SVG 1.1//EN'  'http://www.w3.org/Graphics/SVG/1.1/DTD/svg11.dtd'><svg enable-background="new 0 0 512 512" height="512px" id="Layer_1" version="1.1" viewBox="0 0 512 512" width="512px" xml:space="preserve" xmlns="http://www.w3.org/2000/svg" xmlns:xlink="http://www.w3.org/1999/xlink"><g><g><g><g><path clip-rule="evenodd" d="M256,1C115.173,1,1,115.154,1,256      c0,140.823,114.173,255,255,255s255-114.177,255-255C511,115.154,396.827,1,256,1z" fill="#D61F27" fill-rule="evenodd"/></g></g><g><g><path clip-rule="evenodd" d="M140.968,483.617c9.018,4.576,18.336,8.626,27.933,12.103      v-51.454h-27.933V483.617z M343.087,444.266v51.47c9.597-3.492,18.923-7.542,27.94-12.104v-39.366H343.087z" fill="#FFF5E5" fill-rule="evenodd"/></g></g><g><g><polygon fill="#121325" points="121.801,324.525 105.362,340.694 211.967,449.564 228.406,433.396     "/></g></g><g><g><polygon fill="#121325" points="390.207,324.525 361.416,353.927 283.602,433.396 300.041,449.564 406.646,340.694     "/></g></g><g><g><path clip-rule="evenodd" d="M324.123,368.355v-7.392h-15.509      c-10.775-4.042-22.404-6.255-34.538-6.255H237.92c-12.133,0-23.77,2.213-34.53,6.255h-15.51v7.392      c-28.994,17.034-48.703,48.361-49.256,84.137h49.256v49.279c21.682,6.007,44.53,9.229,68.124,9.229      c23.593,0,46.438-3.222,68.119-9.229v-49.279h49.253C372.819,416.717,353.11,385.39,324.123,368.355z" fill="#121325" fill-rule="evenodd"/></g></g><g><g><path d="M385.355,190.906c0-17.086-6.127-32.606-15.991-43.867c-9.875-11.245-23.511-18.216-38.5-18.216H181.121      c-14.963,0-28.591,6.985-38.47,18.23l-0.015-0.015c-9.868,11.261-15.995,26.781-15.995,43.867l20.564,121.531      c0,17.057,6.138,32.592,16.018,43.837c9.868,11.261,23.499,18.246,38.478,18.246h108.6c14.99,0,28.618-6.985,38.493-18.23      l-0.015-0.016c9.879-11.245,16.014-26.78,16.014-43.837L385.355,190.906z" fill="#FFF5E5"/></g></g><g><g><path clip-rule="evenodd" d="M248.292,388.701V510.85c2.559,0.09,5.133,0.15,7.708,0.15      c2.582,0,5.148-0.061,7.708-0.15V388.701H248.292z" fill="#FFF5E5" fill-rule="evenodd"/></g></g><g><g><polygon clip-rule="evenodd" fill="#FFF5E5" fill-rule="evenodd" points="256,340.122 222.61,373.497 256,406.887       289.375,373.497     "/></g></g><g><g><path clip-rule="evenodd" d="M369.364,147.039c-9.872-11.245-23.507-18.216-38.497-18.216      H181.136c-14.99,0-28.625,6.971-38.5,18.216c-9.872,11.261-15.991,26.781-15.991,43.867l13.82,81.698l6.744,39.833      c0,17.057,6.127,32.584,16.018,43.837c9.864,11.261,23.492,18.246,38.474,18.246h108.604c14.99,0,28.618-6.985,38.489-18.23      l-0.015-0.016c9.883-11.253,16.018-26.78,16.018-43.837l6.737-39.833l13.827-81.698      C385.359,173.82,379.232,158.3,369.364,147.039z M256.956,364.224c-128.802,0-132.453-179.865-1.912-183.223h1.912      C385.499,184.312,385.499,360.911,256.956,364.224z" fill="#121325" fill-rule="evenodd"/></g></g><g><g><path clip-rule="evenodd" d="M210.955,243.761c-6.782,0-12.28,5.51-12.28,12.284      c0,6.79,5.499,12.284,12.28,12.284s12.284-5.494,12.284-12.284C223.239,249.271,217.736,243.761,210.955,243.761z       M301.042,243.761c-6.789,0-12.288,5.51-12.288,12.284c0,6.79,5.499,12.284,12.288,12.284c6.782,0,12.284-5.494,12.284-12.284      C313.326,249.271,307.823,243.761,301.042,243.761z" fill="#6D6F70" fill-rule="evenodd"/></g></g><g><g><polygon clip-rule="evenodd" fill="#121325" fill-rule="evenodd" points="152.865,254.886 149.628,290.022 173.214,350.147       229.17,371.419 289.751,366.331 321.199,357.555 356.809,314.997 361.442,254.886     "/></g></g></g></g></svg>